<?xml version="1.0" encoding="UTF-8" standalone="no"?>
<!DOCTYPE svg PUBLIC "-//W3C//DTD SVG 1.1//EN"
 "http://www.w3.org/Graphics/SVG/1.1/DTD/svg11.dtd">
<!-- Generated by graphviz version 2.40.1 (20161225.0304)
 -->
<!-- Title: %0 Pages: 1 -->
<svg width="1291pt" height="386pt"
 viewBox="0.00 0.00 1291.00 386.00" xmlns="http://www.w3.org/2000/svg" xmlns:xlink="http://www.w3.org/1999/xlink">
<g id="graph0" class="graph" transform="scale(1 1) rotate(0) translate(4 382)">
<title>%0</title>
<polygon fill="#ffffff" stroke="transparent" points="-4,4 -4,-382 1287,-382 1287,4 -4,4"/>
<!-- TILE1_OUTLUT_0 -->
<g id="node1" class="node">
<title>TILE1_OUTLUT_0</title>
<polygon fill="none" stroke="#00ff00" points="824.5,-275 824.5,-297 840.5,-297 840.5,-275 824.5,-275"/>
<text text-anchor="start" x="827.0554" y="-281.4" font-family="Helvetica,sans-Serif" font-size="14.00" fill="#000000">i0</text>
<polygon fill="none" stroke="#00ff00" points="840.5,-231 840.5,-297 1014.5,-297 1014.5,-231 840.5,-231"/>
<text text-anchor="start" x="869.1578" y="-273.4" font-family="Helvetica,sans-Serif" font-weight="bold" font-size="14.00" fill="#000000">TILE1_OUTLUT_0</text>
<text text-anchor="start" x="843.0317" y="-245.4" font-family="Helvetica,sans-Serif" font-size="14.00" fill="#000000">out = (~i0 &amp; i1) | (i0 &amp; (~i0))</text>
<polygon fill="none" stroke="#00ff00" points="824.5,-253 824.5,-275 840.5,-275 840.5,-253 824.5,-253"/>
<text text-anchor="start" x="827.0554" y="-259.4" font-family="Helvetica,sans-Serif" font-size="14.00" fill="#000000">i1</text>
<polygon fill="none" stroke="#00ff00" points="1014.5,-253 1014.5,-275 1039.5,-275 1039.5,-253 1014.5,-253"/>
<text text-anchor="start" x="1017.2721" y="-259.4" font-family="Helvetica,sans-Serif" font-size="14.00" fill="#000000">out</text>
<polygon fill="none" stroke="#00ff00" points="824.5,-231 824.5,-253 840.5,-253 840.5,-231 824.5,-231"/>
<text text-anchor="start" x="827.0554" y="-237.4" font-family="Helvetica,sans-Serif" font-size="14.00" fill="#000000">i2</text>
</g>
<!-- TILE1_BOUNDARY_OUT -->
<g id="node2" class="node">
<title>TILE1_BOUNDARY_OUT</title>
<polygon fill="none" stroke="#000000" points="1145,-275 1145,-297 1275,-297 1275,-275 1145,-275"/>
<text text-anchor="start" x="1147.7728" y="-282.4" font-family="Helvetica,sans-Serif" font-weight="bold" font-size="14.00" fill="#000000">TILE1_BOUNDARY</text>
<polygon fill="none" stroke="#000000" points="1145,-253 1145,-275 1275,-275 1275,-253 1145,-253"/>
<text text-anchor="start" x="1196.3808" y="-259.4" font-family="Helvetica,sans-Serif" font-size="14.00" fill="#000000">out0</text>
<polygon fill="none" stroke="#000000" points="1145,-231 1145,-253 1275,-253 1275,-231 1145,-231"/>
<text text-anchor="start" x="1196.3808" y="-237.4" font-family="Helvetica,sans-Serif" font-size="14.00" fill="#000000">out1</text>
<polygon fill="none" stroke="#000000" points="1145,-209 1145,-231 1275,-231 1275,-209 1145,-209"/>
<text text-anchor="start" x="1196.3808" y="-215.4" font-family="Helvetica,sans-Serif" font-size="14.00" fill="#000000">out2</text>
<polygon fill="none" stroke="#000000" points="1145,-187 1145,-209 1275,-209 1275,-187 1145,-187"/>
<text text-anchor="start" x="1196.3808" y="-193.4" font-family="Helvetica,sans-Serif" font-size="14.00" fill="#000000">out3</text>
<polygon fill="none" stroke="#000000" points="1145,-165 1145,-187 1275,-187 1275,-165 1145,-165"/>
<text text-anchor="start" x="1196.3808" y="-171.4" font-family="Helvetica,sans-Serif" font-size="14.00" fill="#000000">out4</text>
<polygon fill="none" stroke="#000000" points="1145,-143 1145,-165 1275,-165 1275,-143 1145,-143"/>
<text text-anchor="start" x="1196.3808" y="-149.4" font-family="Helvetica,sans-Serif" font-size="14.00" fill="#000000">out5</text>
<polygon fill="none" stroke="#000000" points="1145,-121 1145,-143 1275,-143 1275,-121 1145,-121"/>
<text text-anchor="start" x="1196.3808" y="-127.4" font-family="Helvetica,sans-Serif" font-size="14.00" fill="#000000">out6</text>
<polygon fill="none" stroke="#000000" points="1145,-99 1145,-121 1275,-121 1275,-99 1145,-99"/>
<text text-anchor="start" x="1196.3808" y="-105.4" font-family="Helvetica,sans-Serif" font-size="14.00" fill="#000000">out7</text>
</g>
<!-- TILE1_OUTLUT_0&#45;&gt;TILE1_BOUNDARY_OUT -->
<g id="edge1" class="edge">
<title>TILE1_OUTLUT_0:e&#45;&gt;TILE1_BOUNDARY_OUT:w</title>
<path fill="none" stroke="#000000" d="M1039.5,-264C1082.7257,-264 1096.0649,-264 1134.6208,-264"/>
<polygon fill="#000000" stroke="#000000" points="1135,-267.5001 1145,-264 1135,-260.5001 1135,-267.5001"/>
</g>
<!-- TILE1_COUNTER_0 -->
<g id="node3" class="node">
<title>TILE1_COUNTER_0</title>
<polygon fill="none" stroke="#0000ff" points="484,-352 484,-374 532,-374 532,-352 484,-352"/>
<text text-anchor="start" x="492.4418" y="-358.4" font-family="Helvetica,sans-Serif" font-size="14.00" fill="#000000">reset</text>
<polygon fill="none" stroke="#0000ff" points="532,-286 532,-374 667,-374 667,-286 532,-286"/>
<text text-anchor="start" x="534.5505" y="-339.4" font-family="Helvetica,sans-Serif" font-weight="bold" font-size="14.00" fill="#000000">TILE1_COUNTER_0</text>
<text text-anchor="start" x="547.9541" y="-311.4" font-family="Helvetica,sans-Serif" font-size="14.00" fill="#000000">evAction = None</text>
<polygon fill="none" stroke="#0000ff" points="667,-352 667,-374 718,-374 718,-352 667,-352"/>
<text text-anchor="start" x="678.8871" y="-358.4" font-family="Helvetica,sans-Serif" font-size="14.00" fill="#000000">zero</text>
<polygon fill="none" stroke="#0000ff" points="484,-330 484,-352 532,-352 532,-330 484,-330"/>
<text text-anchor="start" x="490.8808" y="-336.4" font-family="Helvetica,sans-Serif" font-size="14.00" fill="#000000">event</text>
<polygon fill="none" stroke="#0000ff" points="667,-330 667,-352 718,-352 718,-330 667,-330"/>
<text text-anchor="start" x="669.5505" y="-336.4" font-family="Helvetica,sans-Serif" font-size="14.00" fill="#000000">match1</text>
<polygon fill="none" stroke="#0000ff" points="484,-308 484,-330 532,-330 532,-308 484,-308"/>
<text text-anchor="start" x="486.6045" y="-314.4" font-family="Helvetica,sans-Serif" font-size="14.00" fill="#000000">mode0</text>
<polygon fill="none" stroke="#0000ff" points="667,-308 667,-330 718,-330 718,-308 667,-308"/>
<text text-anchor="start" x="669.5505" y="-314.4" font-family="Helvetica,sans-Serif" font-size="14.00" fill="#000000">match2</text>
<polygon fill="none" stroke="#0000ff" points="484,-286 484,-308 532,-308 532,-286 484,-286"/>
<text text-anchor="start" x="486.6045" y="-292.4" font-family="Helvetica,sans-Serif" font-size="14.00" fill="#000000">mode1</text>
</g>
<!-- TILE1_COUNTER_0&#45;&gt;TILE1_OUTLUT_0 -->
<g id="edge2" class="edge">
<title>TILE1_COUNTER_0:e&#45;&gt;TILE1_OUTLUT_0:w</title>
<path fill="none" stroke="#00ff00" d="M718,-341C767.631,-341 770.9844,-293.2625 814.2883,-286.7359"/>
<polygon fill="#00ff00" stroke="#00ff00" points="814.7775,-290.2098 824.5,-286 814.2743,-283.2279 814.7775,-290.2098"/>
</g>
<!-- TILE1_COUNTER_1 -->
<g id="node4" class="node">
<title>TILE1_COUNTER_1</title>
<polygon fill="none" stroke="#0000ff" points="484,-220 484,-242 532,-242 532,-220 484,-220"/>
<text text-anchor="start" x="492.4418" y="-226.4" font-family="Helvetica,sans-Serif" font-size="14.00" fill="#000000">reset</text>
<polygon fill="none" stroke="#0000ff" points="532,-154 532,-242 667,-242 667,-154 532,-154"/>
<text text-anchor="start" x="534.5505" y="-207.4" font-family="Helvetica,sans-Serif" font-weight="bold" font-size="14.00" fill="#000000">TILE1_COUNTER_1</text>
<text text-anchor="start" x="547.9541" y="-179.4" font-family="Helvetica,sans-Serif" font-size="14.00" fill="#000000">evAction = None</text>
<polygon fill="none" stroke="#0000ff" points="667,-220 667,-242 718,-242 718,-220 667,-220"/>
<text text-anchor="start" x="678.8871" y="-226.4" font-family="Helvetica,sans-Serif" font-size="14.00" fill="#000000">zero</text>
<polygon fill="none" stroke="#0000ff" points="484,-198 484,-220 532,-220 532,-198 484,-198"/>
<text text-anchor="start" x="490.8808" y="-204.4" font-family="Helvetica,sans-Serif" font-size="14.00" fill="#000000">event</text>
<polygon fill="none" stroke="#0000ff" points="667,-198 667,-220 718,-220 718,-198 667,-198"/>
<text text-anchor="start" x="669.5505" y="-204.4" font-family="Helvetica,sans-Serif" font-size="14.00" fill="#000000">match1</text>
<polygon fill="none" stroke="#0000ff" points="484,-176 484,-198 532,-198 532,-176 484,-176"/>
<text text-anchor="start" x="486.6045" y="-182.4" font-family="Helvetica,sans-Serif" font-size="14.00" fill="#000000">mode0</text>
<polygon fill="none" stroke="#0000ff" points="667,-176 667,-198 718,-198 718,-176 667,-176"/>
<text text-anchor="start" x="669.5505" y="-182.4" font-family="Helvetica,sans-Serif" font-size="14.00" fill="#000000">match2</text>
<polygon fill="none" stroke="#0000ff" points="484,-154 484,-176 532,-176 532,-154 484,-154"/>
<text text-anchor="start" x="486.6045" y="-160.4" font-family="Helvetica,sans-Serif" font-size="14.00" fill="#000000">mode1</text>
</g>
<!-- TILE1_COUNTER_1&#45;&gt;TILE1_OUTLUT_0 -->
<g id="edge3" class="edge">
<title>TILE1_COUNTER_1:e&#45;&gt;TILE1_OUTLUT_0:w</title>
<path fill="none" stroke="#00ff00" d="M718,-209C767.631,-209 770.9844,-256.7375 814.2883,-263.2641"/>
<polygon fill="#00ff00" stroke="#00ff00" points="814.2743,-266.7721 824.5,-264 814.7775,-259.7902 814.2743,-266.7721"/>
</g>
<!-- TILE1_LUT_0 -->
<g id="node5" class="node">
<title>TILE1_LUT_0</title>
<polygon fill="none" stroke="#ffa500" points="244,-297 244,-319 260,-319 260,-297 244,-297"/>
<text text-anchor="start" x="246.5554" y="-303.4" font-family="Helvetica,sans-Serif" font-size="14.00" fill="#000000">i0</text>
<polygon fill="none" stroke="#ffa500" points="260,-231 260,-319 353,-319 353,-231 260,-231"/>
<text text-anchor="start" x="262.9327" y="-284.4" font-family="Helvetica,sans-Serif" font-weight="bold" font-size="14.00" fill="#000000">TILE1_LUT_0</text>
<text text-anchor="start" x="279.2623" y="-256.4" font-family="Helvetica,sans-Serif" font-size="14.00" fill="#000000">out = ~i0</text>
<polygon fill="none" stroke="#ffa500" points="244,-275 244,-297 260,-297 260,-275 244,-275"/>
<text text-anchor="start" x="246.5554" y="-281.4" font-family="Helvetica,sans-Serif" font-size="14.00" fill="#000000">i1</text>
<polygon fill="none" stroke="#ffa500" points="353,-275 353,-297 378,-297 378,-275 353,-275"/>
<text text-anchor="start" x="355.7721" y="-281.4" font-family="Helvetica,sans-Serif" font-size="14.00" fill="#000000">out</text>
<polygon fill="none" stroke="#ffa500" points="244,-253 244,-275 260,-275 260,-253 244,-253"/>
<text text-anchor="start" x="246.5554" y="-259.4" font-family="Helvetica,sans-Serif" font-size="14.00" fill="#000000">i2</text>
<polygon fill="none" stroke="#ffa500" points="244,-231 244,-253 260,-253 260,-231 244,-231"/>
<text text-anchor="start" x="246.5554" y="-237.4" font-family="Helvetica,sans-Serif" font-size="14.00" fill="#000000">i3</text>
</g>
<!-- TILE1_LUT_0&#45;&gt;TILE1_COUNTER_0 -->
<g id="edge6" class="edge">
<title>TILE1_LUT_0:e&#45;&gt;TILE1_COUNTER_0:w</title>
<path fill="none" stroke="#0000ff" d="M378,-286C423.7757,-286 433.3816,-314.4028 473.9296,-318.5079"/>
<polygon fill="#0000ff" stroke="#0000ff" points="473.8411,-322.0077 484,-319 474.1828,-315.016 473.8411,-322.0077"/>
</g>
<!-- TILE1_LUT_0&#45;&gt;TILE1_COUNTER_1 -->
<g id="edge8" class="edge">
<title>TILE1_LUT_0:e&#45;&gt;TILE1_COUNTER_1:w</title>
<path fill="none" stroke="#0000ff" d="M378,-286C427.4471,-286 430.6966,-238.2625 473.8276,-231.7359"/>
<polygon fill="#0000ff" stroke="#0000ff" points="474.2786,-235.2125 484,-231 473.7735,-228.2308 474.2786,-235.2125"/>
</g>
<!-- TILE1_BOUNDARY -->
<g id="node6" class="node">
<title>TILE1_BOUNDARY</title>
<polygon fill="none" stroke="#000000" points="8,-319 8,-341 138,-341 138,-319 8,-319"/>
<text text-anchor="start" x="10.7728" y="-326.4" font-family="Helvetica,sans-Serif" font-weight="bold" font-size="14.00" fill="#000000">TILE1_BOUNDARY</text>
<polygon fill="none" stroke="#000000" points="8,-297 8,-319 138,-319 138,-297 8,-297"/>
<text text-anchor="start" x="53.9376" y="-303.4" font-family="Helvetica,sans-Serif" font-size="14.00" fill="#000000">in0 &#160;→</text>
<polygon fill="none" stroke="#000000" points="8,-275 8,-297 138,-297 138,-275 8,-275"/>
<text text-anchor="start" x="53.9376" y="-281.4" font-family="Helvetica,sans-Serif" font-size="14.00" fill="#000000">in1 &#160;→</text>
<polygon fill="none" stroke="#000000" points="8,-253 8,-275 138,-275 138,-253 8,-253"/>
<text text-anchor="start" x="53.9376" y="-259.4" font-family="Helvetica,sans-Serif" font-size="14.00" fill="#000000">in2 &#160;→</text>
<polygon fill="none" stroke="#000000" points="8,-231 8,-253 138,-253 138,-231 8,-231"/>
<text text-anchor="start" x="53.9376" y="-237.4" font-family="Helvetica,sans-Serif" font-size="14.00" fill="#000000">in3 &#160;→</text>
<polygon fill="none" stroke="#000000" points="8,-209 8,-231 138,-231 138,-209 8,-209"/>
<text text-anchor="start" x="53.9376" y="-215.4" font-family="Helvetica,sans-Serif" font-size="14.00" fill="#000000">in4 &#160;→</text>
<polygon fill="none" stroke="#000000" points="8,-187 8,-209 138,-209 138,-187 8,-187"/>
<text text-anchor="start" x="53.9376" y="-193.4" font-family="Helvetica,sans-Serif" font-size="14.00" fill="#000000">in5 &#160;→</text>
<polygon fill="none" stroke="#000000" points="8,-165 8,-187 138,-187 138,-165 8,-165"/>
<text text-anchor="start" x="53.9376" y="-171.4" font-family="Helvetica,sans-Serif" font-size="14.00" fill="#000000">in6 &#160;→</text>
<polygon fill="none" stroke="#000000" points="8,-143 8,-165 138,-165 138,-143 8,-143"/>
<text text-anchor="start" x="53.9376" y="-149.4" font-family="Helvetica,sans-Serif" font-size="14.00" fill="#000000">in7 &#160;→</text>
</g>
<!-- TILE1_BOUNDARY&#45;&gt;TILE1_COUNTER_0 -->
<g id="edge5" class="edge">
<title>TILE1_BOUNDARY:e&#45;&gt;TILE1_COUNTER_0:w</title>
<path fill="none" stroke="#0000ff" d="M138,-308C183.9587,-308 191.0191,-331.5704 236,-341 340.9165,-362.9943 371.4523,-363.0211 473.8603,-363.0013"/>
<polygon fill="#0000ff" stroke="#0000ff" points="474.0005,-366.5014 484,-363 473.9995,-359.5014 474.0005,-366.5014"/>
</g>
<!-- TILE1_BOUNDARY&#45;&gt;TILE1_COUNTER_1 -->
<g id="edge9" class="edge">
<title>TILE1_BOUNDARY:e&#45;&gt;TILE1_COUNTER_1:w</title>
<path fill="none" stroke="#0000ff" d="M138,-308C199.9119,-308 179.9713,-235.3414 236,-209 333.0107,-163.3913 370.9582,-185.503 473.8371,-186.9295"/>
<polygon fill="#0000ff" stroke="#0000ff" points="473.9759,-190.4304 484,-187 474.0246,-183.4306 473.9759,-190.4304"/>
</g>
<!-- TILE1_BOUNDARY&#45;&gt;TILE1_LUT_0 -->
<g id="edge4" class="edge">
<title>TILE1_BOUNDARY:e&#45;&gt;TILE1_LUT_0:w</title>
<path fill="none" stroke="#ffa500" d="M138,-308C181.4306,-308 194.833,-308 233.5716,-308"/>
<polygon fill="#ffa500" stroke="#ffa500" points="234,-311.5001 244,-308 234,-304.5001 234,-311.5001"/>
</g>
<!-- 1 -->
<g id="node7" class="node">
<title>1</title>
<ellipse fill="none" stroke="#000000" cx="311" cy="-76" rx="27" ry="18"/>
<text text-anchor="middle" x="311" y="-71.8" font-family="Helvetica,sans-Serif" font-size="14.00" fill="#000000">1</text>
</g>
<!-- 1&#45;&gt;TILE1_COUNTER_0 -->
<g id="edge7" class="edge">
<title>1&#45;&gt;TILE1_COUNTER_0:w</title>
<path fill="none" stroke="#0000ff" d="M319.9977,-93.3415C345.8784,-142.184 421.9806,-278.4435 473.9499,-295.2852"/>
<polygon fill="#0000ff" stroke="#0000ff" points="473.5537,-298.7681 484,-297 474.7312,-291.8678 473.5537,-298.7681"/>
</g>
<!-- 1&#45;&gt;TILE1_COUNTER_1 -->
<g id="edge10" class="edge">
<title>1&#45;&gt;TILE1_COUNTER_1:w</title>
<path fill="none" stroke="#0000ff" d="M326.7709,-90.6965C354.0932,-114.642 413.1514,-159.8954 473.8522,-164.6017"/>
<polygon fill="#0000ff" stroke="#0000ff" points="473.8704,-168.105 484,-165 474.145,-161.1104 473.8704,-168.105"/>
</g>
<!-- TILE1_COUNTER_2 -->
<g id="node8" class="node">
<title>TILE1_COUNTER_2</title>
<polygon fill="none" stroke="#0000ff" points="484,-70 484,-92 532,-92 532,-70 484,-70"/>
<text text-anchor="start" x="492.4418" y="-76.4" font-family="Helvetica,sans-Serif" font-size="14.00" fill="#000000">reset</text>
<polygon fill="none" stroke="#0000ff" points="532,-4 532,-92 667,-92 667,-4 532,-4"/>
<text text-anchor="start" x="534.5505" y="-57.4" font-family="Helvetica,sans-Serif" font-weight="bold" font-size="14.00" fill="#000000">TILE1_COUNTER_2</text>
<text text-anchor="start" x="547.9541" y="-29.4" font-family="Helvetica,sans-Serif" font-size="14.00" fill="#000000">evAction = None</text>
<polygon fill="none" stroke="#0000ff" points="667,-70 667,-92 718,-92 718,-70 667,-70"/>
<text text-anchor="start" x="678.8871" y="-76.4" font-family="Helvetica,sans-Serif" font-size="14.00" fill="#000000">zero</text>
<polygon fill="none" stroke="#0000ff" points="484,-48 484,-70 532,-70 532,-48 484,-48"/>
<text text-anchor="start" x="490.8808" y="-54.4" font-family="Helvetica,sans-Serif" font-size="14.00" fill="#000000">event</text>
<polygon fill="none" stroke="#0000ff" points="667,-48 667,-70 718,-70 718,-48 667,-48"/>
<text text-anchor="start" x="669.5505" y="-54.4" font-family="Helvetica,sans-Serif" font-size="14.00" fill="#000000">match1</text>
<polygon fill="none" stroke="#0000ff" points="484,-26 484,-48 532,-48 532,-26 484,-26"/>
<text text-anchor="start" x="486.6045" y="-32.4" font-family="Helvetica,sans-Serif" font-size="14.00" fill="#000000">mode0</text>
<polygon fill="none" stroke="#0000ff" points="667,-26 667,-48 718,-48 718,-26 667,-26"/>
<text text-anchor="start" x="669.5505" y="-32.4" font-family="Helvetica,sans-Serif" font-size="14.00" fill="#000000">match2</text>
<polygon fill="none" stroke="#0000ff" points="484,-4 484,-26 532,-26 532,-4 484,-4"/>
<text text-anchor="start" x="486.6045" y="-10.4" font-family="Helvetica,sans-Serif" font-size="14.00" fill="#000000">mode1</text>
</g>
<!-- 1&#45;&gt;TILE1_COUNTER_2 -->
<g id="edge12" class="edge">
<title>1&#45;&gt;TILE1_COUNTER_2:w</title>
<path fill="none" stroke="#0000ff" d="M334.6875,-67.1503C365.6036,-56.3628 421.8872,-39.3026 473.7049,-37.2122"/>
<polygon fill="#0000ff" stroke="#0000ff" points="474.0743,-40.7054 484,-37 473.93,-33.7069 474.0743,-40.7054"/>
</g>
<!-- 1&#45;&gt;TILE1_COUNTER_2 -->
<g id="edge13" class="edge">
<title>1&#45;&gt;TILE1_COUNTER_2:w</title>
<path fill="none" stroke="#0000ff" d="M331.2203,-63.8023C360.8602,-47.044 418.5846,-18.5876 473.7388,-15.3104"/>
<polygon fill="#0000ff" stroke="#0000ff" points="474.1104,-18.8009 484,-15 473.8987,-11.8041 474.1104,-18.8009"/>
</g>
<!-- TILE1_COUNTER_2&#45;&gt;TILE1_COUNTER_2 -->
<g id="edge11" class="edge">
<title>TILE1_COUNTER_2:e&#45;&gt;TILE1_COUNTER_2:w</title>
<path fill="none" stroke="#0000ff" d="M718,-59C790.5,-87 790.5,-132 601,-132 420.3828,-132 411.9164,-110.1973 474.2946,-84.7749"/>
<polygon fill="#0000ff" stroke="#0000ff" points="475.9489,-87.887 484,-81 473.4114,-81.3631 475.9489,-87.887"/>
</g>
</g>
</svg>
